# AST/ASF file generated using VICON BodyLanguage
# -----------------------------------------------
:version 1.10
:name VICON
:units
  mass 1.0
  length 0.45
  angle deg
:documentation
   .ast/.asf automatically generated from VICON data using
   VICON BodyBuilder and BodyLanguage model FoxedUp or BRILLIANT.MOD
:root
   order TX TY TZ RX RY RZ
   axis XYZ
   position 0 0 0  
   orientation 0 0 0 
:bonedata
  begin
     id 1 
     name lhipjoint
     direction 0.645422 -0.672597 0.361999 
     length 2.39934 
     axis 0 0 0  XYZ
  end
  begin
     id 2 
     name lfemur
     direction 0.34202 -0.939693 0  
     length 6.58112  
     axis 0 0 20  XYZ
    dof rx ry rz
    limits (-160.0 20.0)
           (-70.0 70.0)
           (-60.0 70.0)
  end
  begin
     id 3 
     name ltibia
     direction 0.34202 -0.939693 0   
     length 7.02673   
     axis 0 0 20   XYZ
    dof rx
    limits (-10.0 170.0)
  end
  begin
     id 4 
     name lfoot
     direction 0.0835106 -0.229444 0.969733   
     length 2.08772   
     axis -90 7.62852e-016 20   XYZ
    dof rx rz
    limits (-45.0 90.0)
           (-70.0 20.0)
  end
  begin
     id 5 
     name ltoes
     direction 1.5358e-011 -4.21925e-011 1   
     length 1.04844   
     axis -90 7.62852e-016 20   XYZ
    dof rx
    limits (-90.0 20.0)
  end
  begin
     id 6 
     name rhipjoint
     direction -0.644959 -0.672941 0.362185   
     length 2.39812  
     axis 0 0 0  XYZ 
  end
  begin
     id 7 
     name rfemur
     direction -0.34202 -0.939693 0   
     length 6.67015   
     axis 0 0 -20   XYZ
    dof rx ry rz
    limits (-160.0 20.0)
           (-70.0 70.0)
           (-70.0 60.0)
  end
  begin
     id 8 
     name rtibia
     direction -0.34202 -0.939693 0   
     length 7.35735   
     axis 0 0 -20   XYZ
    dof rx
    limits (-10.0 170.0)
 end
 begin
     id 9 
     name rfoot
     direction -0.0670769 -0.184292 0.98058   
     length 2.25469  
     axis -90 -7.62852e-016 -20   XYZ
    dof rx rz
    limits (-45.0 90.0)
           (-20.0 70.0)
  end
  begin
     id 10 
     name rtoes
     direction -1.53575e-011 -4.21908e-011 1   
     length 1.13399   
     axis -90 -7.62852e-016 -20   XYZ
    dof rx
    limits (-90.0 20.0)
  end
  begin
     id 11 
     name lowerback
     direction -0.0188328 0.993434 -0.112847   
     length 2.27656   
     axis 0 0 0   XYZ
    dof rx ry rz
    limits (-20.0 45.0)
           (-30.0 30.0)
           (-30.0 30.0)
  end
  begin
     id 12 
     name upperback
     direction 0.00983139 0.998968 -0.04435   
     length 2.28631   
     axis 0 0 0   XYZ
    dof rx ry rz
    limits (-20.0 45.0)
           (-30.0 30.0)
           (-30.0 30.0)
  end
  begin
     id 13 
     name thorax
     direction 0.0177718 0.999807 0.00833073   
     length 2.30999   
     axis 0 0 0   XYZ
    dof rx ry rz
    limits (-20.0 45.0)
           (-30.0 30.0)
           (-30.0 30.0)
  end
  begin
     id 14 
     name lowerneck
     direction -0.0835025 0.993181 0.0813558   
     length 1.39447   
     axis 0 0 0   XYZ
    dof rx ry rz
    limits (-20.0 45.0)
           (-30.0 30.0)
           (-30.0 30.0)
  end
  begin
     id 15 
     name upperneck
     direction 0.210059 0.976535 0.0474817   
     length 1.39882   
     axis 0 0 0   XYZ
    dof rx ry rz
    limits (-20.0 45.0)
           (-30.0 30.0)
           (-30.0 30.0)
  end
  begin
     id 16
     name head
     direction 0.0780891 0.996944 -0.00207154  
     length 1.41828  
     axis 0 0 0   XYZ
    dof rx ry rz
    limits (-20.0 45.0)
           (-30.0 30.0)
           (-30.0 30.0)
  end
  begin
     id 17 
     name lclavicle
     direction 0.982414 0.166355 -0.0847829  
     length 3.57922  
     axis 0 0 0   XYZ
    dof ry rz
    limits (-20.0 10.0)
           (0.0 20.0)
  end
  begin
     id 18 
     name lhumerus
     direction 1 -4.48975e-011 5.47647e-028   
     length 4.76405   
     axis -180 -30 -90   XYZ
    dof rx ry rz
    limits (-60.0 90.0)
           (-90.0 90.0)
           (-90.0 90.0)
  end
  begin
     id 19
     name lradius
     direction 1 -4.48949e-011 -8.32142e-027   
     length 3.13759   
     axis -180 -30 -90   XYZ
    dof rx
    limits (-10.0 170.0)
  end
  begin
     id 20
     name lwrist
     direction 1 -4.48978e-011 -1.32705e-026   
     length 1.56879   
     axis 9.60836e-015 90 90   XYZ
    dof ry
    limits (-180.0 0.0)
 end
  begin
     id 21 
     name lhand
     direction 1 -4.48975e-011 -2.65409e-026   
     length 0.732262   
     axis 1.69354e-014 90 90   XYZ
    dof rx rz
    limits (-90.0 90.0)
           (-45.0 45.0)
  end
  begin
     id 22 
     name lfingers
     direction 1 -4.48923e-011 -5.30819e-026   
     length 0.590368   
     axis 3.38708e-014 90 90   XYZ
    dof rx
    limits (0.0 90.0)
  end
  begin
     id 23
     name lthumb
     direction 0.707107 -6.34914e-011 0.707107   
     length 0.847654   
     axis -90 45 2.85299e-015   XYZ
    dof rx rz
    limits (-45.0 45.0)
           (-45.0 45.0)
  end
  begin
     id 24 
     name rclavicle
     direction -0.963658 0.245183 -0.106063   
     length 3.43472  
     axis 0 0 0   XYZ 
    dof ry rz
    limits (-10.0 20.0)
           (-20.0 0.0)
  end
  begin
     id 25 
     name rhumerus
     direction -1 -4.48963e-011 -1.64784e-027  
     length 5.10161   
     axis -180 30 90   XYZ
    dof rx ry rz
    limits (-90.0 60.0)
           (-90.0 90.0)
           (-90.0 90.0)
  end
  begin
     id 26 
     name rradius
     direction -1 -4.48969e-011 -2.87943e-027   
     length 3.23267   
     axis -180 30 90   XYZ
    dof rx
    limits (-10.0 170.0)
  end
  begin
     id 27 
     name rwrist
     direction -1 -4.48982e-011 -1.32705e-026   
     length 1.61633   
     axis 9.60836e-015 -90 -90   XYZ
    dof ry
    limits (-180.0 0.0)
  end
  begin
     id 28
     name rhand
     direction -1 -4.48963e-011 -2.65409e-026   
     length 0.702   
     axis 1.69354e-014 -90 -90   XYZ
    dof rx rz
    limits (-90.0 90.0)
           (-45.0 45.0)
  end
  begin
     id 29
     name rfingers
     direction -1 -4.48934e-011 -5.30819e-026   
     length 0.565971   
     axis 3.38708e-014 -90 -90   XYZ
    dof rx
    limits (0.0 90.0)
  end
  begin
     id 30
     name rthumb
     direction -0.707107 -6.34908e-011 0.707107   
     length 0.812624   
     axis -90 -45 -2.85299e-015   XYZ
    dof rx rz
    limits (-45.0 45.0)
           (-45.0 45.0)
  end
:hierarchy
  begin
    root lhipjoint rhipjoint lowerback
    lhipjoint lfemur
    lfemur ltibia
    ltibia lfoot
    lfoot ltoes
    rhipjoint rfemur
    rfemur rtibia
    rtibia rfoot
    rfoot rtoes
    lowerback upperback
    upperback thorax
    thorax lowerneck lclavicle rclavicle
    lowerneck upperneck
    upperneck head
    lclavicle lhumerus
    lhumerus lradius
    lradius lwrist
    lwrist lhand lthumb
    lhand lfingers
    rclavicle rhumerus
    rhumerus rradius
    rradius rwrist
    rwrist rhand rthumb
    rhand rfingers
  end

#!OML:ASF \\sashay\E\basketball\basketball\Project 1\Capture day 1\Session 1\Subject.ASF
:FULLY-SPECIFIED
:DEGREES
148
root 7.8907 14.7191 -9.85336 4.88473 132.351 -18.3983
lowerback 19.9141 7.49713 1.20775
upperback 9.43235 11.08 -3.94884
thorax 0.329698 6.1853 -6.914
lowerneck 12.3953 -19.2596 -19.2007
upperneck -27.1429 -23.3516 39.3324
head -1.69893 -13.7931 16.2521
rclavicle -1.19271e-013 0
rhumerus -22.6655 -19.4415 -86.1828
rradius 47.3001
rwrist -17.859
rhand -36.7563 46.9429
rfingers 7.12502
rthumb -9.83957 17.1928
lclavicle -1.19271e-013 0
lhumerus -0.167837 10.5141 86.4719
lradius 115.621
lwrist 29.8916
lhand 8.10951 40.0155
lfingers 7.12502
lthumb 33.3311 66.9452
rfemur 13.6319 -8.75484 38.9849
rtibia 21.4438
rfoot 3.04375 -10.5196
rtoes -33.3322
lfemur -67.0886 -6.47914 -20.9821
ltibia 60.8642
lfoot 1.05984 -14.2229
ltoes -26.942
149
root 8.43305 14.7075 -9.98756 5.0496 132.73 -17.3582
lowerback 19.9555 7.1812 1.40138
upperback 9.41373 10.7177 -3.98669
thorax 0.283541 6.0183 -7.00945
lowerneck 12.3183 -19.0207 -19.7562
upperneck -26.3038 -23.2098 39.9505
head -1.28082 -13.7201 16.4896
rclavicle -3.97569e-014 6.20208e-014
rhumerus -21.9111 -17.1389 -87.3905
rradius 48.7975
rwrist -17.7993
rhand -36.1331 47.0785
rfingers 7.12502
rthumb -9.23824 17.3009
lclavicle -3.97569e-014 6.20208e-014
lhumerus 2.1997 4.60375 86.2036
lradius 116.719
lwrist 23.6104
lhand 6.63729 40.0399
lfingers 7.12502
lthumb 31.9304 67.2598
rfemur 15.5505 -8.40776 40.0949
rtibia 22.7348
rfoot 2.53852 -8.38956
rtoes -34.3198
lfemur -66.2343 -5.53259 -21.7821
ltibia 56.708
lfoot 4.00278 -15.9076
ltoes -24.5347
150
root 8.96696 14.6842 -10.1242 5.64669 133.131 -16.2562
lowerback 19.5511 6.76499 1.54571
upperback 9.33658 10.1934 -4.00752
thorax 0.358924 5.75733 -6.96935
lowerneck 12.0851 -18.8662 -19.3212
upperneck -26.2365 -22.8321 39.7835
head -1.43376 -13.5044 16.4426
rclavicle -8.5875e-014 7.63333e-014
rhumerus -21.1106 -14.8173 -88.459
rradius 50.1407
rwrist -17.2591
rhand -34.8349 47.2105
rfingers 7.12502
rthumb -7.98543 17.3814
lclavicle -8.5875e-014 7.63333e-014
lhumerus 4.25202 -1.51453 85.4072
lradius 117.695
lwrist 17.2971
lhand 4.62863 39.6992
lfingers 7.12502
lthumb 30.0157 67.2836
rfemur 16.4122 -8.46897 41.164
rtibia 25.1512
rfoot 1.57226 -6.14867
rtoes -36.2221
lfemur -65.8064 -4.65275 -22.4648
ltibia 53.0002
lfoot 6.70363 -16.9885
ltoes -23.8143
151
root 9.49562 14.655 -10.2618 6.07945 133.391 -15.0403
lowerback 19.4337 6.3212 1.65929
upperback 9.34174 9.63929 -3.91617
thorax 0.348191 5.48125 -6.82955
lowerneck 11.5625 -18.7215 -18.9879
upperneck -26.0023 -22.493 39.6206
head -1.46003 -13.2733 16.3306
rclavicle 3.81667e-014 7.63333e-014
rhumerus -20.2906 -12.6437 -89.3484
rradius 51.3551
rwrist -16.3493
rhand -34.3808 47.6848
rfingers 7.12502
rthumb -7.54709 17.8395
lclavicle 3.81667e-014 7.63333e-014
lhumerus 6.15585 -7.86313 83.9822
lradius 118.532
lwrist 11.5178
lhand 2.21933 39.6621
lfingers 7.12502
lthumb 27.7143 67.6397
rfemur 16.9231 -8.88272 42.0735
rtibia 28.7476
rfoot 0.21385 -4.36368
rtoes -38.2156
lfemur -65.1056 -3.84639 -22.8375
ltibia 50.0187
lfoot 8.44514 -17.5978
ltoes -24.6185
152
root 10.0178 14.6176 -10.4022 6.44694 133.56 -13.8903
lowerback 19.382 5.85513 1.62711
upperback 9.32397 9.0212 -3.7546
thorax 0.23646 5.15855 -6.53794
lowerneck 10.9329 -18.5518 -18.8894
upperneck -25.5504 -22.2085 39.5345
head -1.33937 -13.0503 16.2233
rclavicle -5.56597e-014 -4.6118e-014
rhumerus -19.6244 -10.3815 -90.0977
rradius 52.5083
rwrist -15.347
rhand -33.9989 48.8783
rfingers 7.12502
rthumb -7.17851 19.0201
lclavicle -5.56597e-014 -4.6118e-014
lhumerus 7.79331 -14.0297 81.9926
lradius 119.082
lwrist 6.00877
lhand -0.716543 39.6873
lfingers 7.12502
lthumb 24.9039 68.0849
rfemur 16.8918 -9.6117 42.6434
rtibia 33.4479
rfoot -1.07549 -2.68027
rtoes -39.0976
lfemur -64.4268 -3.11514 -23.0932
ltibia 47.7556
lfoot 9.08285 -17.8909
ltoes -26.3484
153
root 10.5314 14.5761 -10.5447 6.55309 133.513 -13.272
lowerback 19.2029 5.35698 1.13571
upperback 9.32387 8.28619 -3.69376
thorax 0.152625 4.76653 -6.06152
lowerneck 10.2142 -18.234 -19.1638
upperneck -25.0331 -21.7569 39.7489
head -1.11713 -12.7305 16.3082
rclavicle -3.81667e-014 -5.08889e-014
rhumerus -18.8817 -8.01723 -90.8909
rradius 53.4844
rwrist -14.1124
rhand -34.1627 50.644
rfingers 7.12502
rthumb -7.33665 20.7912
lclavicle -3.81667e-014 -5.08889e-014
lhumerus 9.33769 -19.7337 79.5408
lradius 118.942
lwrist 0.939008
lhand -4.33619 39.593
lfingers 7.12502
lthumb 21.4311 68.4277
rfemur 16.3088 -10.5887 42.4549
rtibia 38.9976
rfoot -2.10996 -3.20067
rtoes -42.4326
lfemur -63.5741 -2.68041 -23.0105
ltibia 46.235
lfoot 9.60323 -17.1965
ltoes -20.7077
154
root 11.0519 14.5408 -10.6846 6.34576 133.146 -13.1427
lowerback 19.0254 4.9164 0.319592
upperback 9.39364 7.59185 -3.78281
thorax 0.147715 4.39879 -5.56359
lowerneck 9.19997 -18.0449 -18.5597
upperneck -24.9888 -21.174 39.517
head -1.22591 -12.3383 16.1382
rclavicle -9.30312e-014 1.1609e-013
rhumerus -17.9303 -5.83781 -91.7375
rradius 54.1902
rwrist -12.5555
rhand -34.3635 52.3018
rfingers 7.12502
rthumb -7.53042 22.4559
lclavicle -9.30312e-014 1.1609e-013
lhumerus 11.077 -25.0478 76.7399
lradius 118.089
lwrist -2.64126
lhand -8.10628 39.2826
lfingers 7.12502
lthumb 17.8066 68.4874
rfemur 15.2879 -11.4461 41.6643
rtibia 45.2751
rfoot -2.538 -4.73709
rtoes -44.4396
lfemur -62.662 -1.99789 -23.1858
ltibia 45.3253
lfoot 9.76855 -16.3971
ltoes -20.2584
155
root 11.5766 14.5129 -10.8225 6.05384 132.572 -13.0776
lowerback 19.0926 4.55798 -0.420287
upperback 9.39556 7.00523 -3.91925
thorax -0.00908052 4.08451 -5.20726
lowerneck 8.31222 -17.8834 -19.0029
upperneck -24.6216 -20.8969 40.0776
head -0.871225 -12.1037 16.3249
rclavicle 1.59028e-015 -1.59028e-015
rhumerus -17.0954 -3.98705 -92.5429
rradius 54.7661
rwrist -10.9838
rhand -34.5339 53.7296
rfingers 7.12502
rthumb -7.69491 23.8896
lclavicle 1.59028e-015 -1.59028e-015
lhumerus 12.797 -29.8895 73.9838
lradius 116.575
lwrist -4.74963
lhand -11.1718 37.6378
lfingers 7.12502
lthumb 14.8549 67.0852
rfemur 13.9511 -12.208 40.6242
rtibia 52.0504
rfoot -2.49168 -7.06234
rtoes -41.9104
lfemur -61.7276 -1.08688 -23.2941
ltibia 45.0305
lfoot 9.54095 -15.7552
ltoes -21.4198
156
root 12.0901 14.4828 -10.9628 5.72069 131.817 -13.0136
lowerback 19.3121 4.20733 -1.30122
upperback 9.33178 6.37933 -3.90434
thorax -0.337046 3.73252 -4.61956
lowerneck 7.45661 -17.5554 -19.5628
upperneck -24.3684 -20.3795 40.4589
head -0.644298 -11.7271 16.5588
rclavicle 8.0309e-014 -5.48646e-014
rhumerus -16.508 -2.10783 -93.2006
rradius 55.4108
rwrist -9.71907
rhand -34.6685 55.0251
rfingers 7.12502
rthumb -7.82481 25.1899
lclavicle 8.0309e-014 -5.48646e-014
lhumerus 13.8971 -33.7784 71.86
lradius 114.525
lwrist -6.00224
lhand -14.2136 36.0729
lfingers 7.12502
lthumb 11.9232 65.7134
rfemur 12.3075 -12.9193 39.3594
rtibia 59.1572
rfoot -2.99285 -11.0133
rtoes -40.9903
lfemur -60.4816 -0.449301 -22.818
ltibia 45.4304
lfoot 8.59691 -14.4419
ltoes -19.1624
157
root 12.5895 14.4412 -11.109 5.2965 130.778 -13.0113
lowerback 19.4835 3.87001 -2.42351
upperback 9.37526 5.74132 -3.72063
thorax -0.542572 3.36863 -3.69513
lowerneck 6.51187 -17.1283 -20.2056
upperneck -24.3813 -19.651 40.6827
head -0.559566 -11.2206 16.8281
rclavicle -2.78299e-014 -4.69132e-014
rhumerus -15.8725 -0.0994347 -93.5666
rradius 56.1044
rwrist -8.48078
rhand -34.6389 55.7571
rfingers 7.12502
rthumb -7.79627 25.9209
lclavicle -2.78299e-014 -4.69132e-014
lhumerus 14.4265 -36.6631 70.5855
lradius 111.939
lwrist -6.56214
lhand -18.1161 35.5375
lfingers 7.12502
lthumb 8.15826 65.36
rfemur 10.4029 -13.3384 37.9387
rtibia 66.4135
rfoot -3.00207 -14.8964
rtoes -34.2753
lfemur -59.2129 0.289625 -22.2716
ltibia 46.6194
lfoot 5.5993 -14.1447
ltoes -21.5409
158
root 13.0804 14.397 -11.2586 4.6814 129.521 -13.0702
lowerback 19.6882 3.60225 -3.53415
upperback 9.56392 5.2225 -3.52265
thorax -0.569533 3.07606 -2.77355
lowerneck 5.56023 -16.7479 -21.0483
upperneck -24.4823 -18.962 41.1763
head -0.410413 -10.7407 17.2538
rclavicle -3.4191e-014 5.88403e-014
rhumerus -15.0972 1.60157 -93.7639
rradius 56.7986
rwrist -7.28349
rhand -34.6232 55.8063
rfingers 7.12502
rthumb -7.78109 25.9694
lclavicle -3.4191e-014 5.88403e-014
lhumerus 14.9348 -38.9636 69.7513
lradius 108.512
lwrist -6.89385
lhand -22.3409 34.8264
lfingers 7.12502
lthumb 4.07962 64.7671
rfemur 8.4384 -13.7332 36.0326
rtibia 73.5881
rfoot -3.81227 -19.0262
rtoes -33.3853
lfemur -57.5614 1.24775 -21.6202
ltibia 48.6083
lfoot 0.0974781 -12.782
ltoes -24.6677
159
root 13.5631 14.3443 -11.4056 4.11516 128.175 -12.9408
lowerback 20.0915 3.35745 -4.37752
upperback 9.69171 4.75881 -3.4749
thorax -0.701935 2.82552 -2.18645
lowerneck 4.55459 -16.3573 -21.1175
upperneck -24.7324 -18.0374 41.4399
head -0.520015 -10.1608 17.5453
rclavicle -6.52014e-014 2.18663e-014
rhumerus -14.4735 2.69402 -94.2952
rradius 57.5411
rwrist -6.45487
rhand -34.7265 55.8084
rfingers 7.12502
rthumb -7.88077 25.9753
lclavicle -6.52014e-014 2.18663e-014
lhumerus 15.3071 -40.8766 68.9564
lradius 104.268
lwrist -7.74027
lhand -26.308 33.5711
lfingers 7.12502
lthumb 0.248245 63.5507
rfemur 6.2111 -13.7294 34.3273
rtibia 80.6598
rfoot -4.32966 -21.7262
rtoes -29.4399
lfemur -55.8076 2.2687 -20.6008
ltibia 51.247
lfoot -4.20567 -9.50521
ltoes -28.2811
160
root 14.0388 14.3071 -11.5487 4.00995 126.918 -12.2849
lowerback 20.8675 2.93936 -4.48862
upperback 9.60454 4.13292 -3.69538
thorax -1.17778 2.5241 -2.29014
lowerneck 3.30253 -15.972 -20.7051
upperneck -24.2546 -17.1706 41.7402
head -0.431659 -9.60148 17.6717
rclavicle -9.14409e-015 1.98785e-015
rhumerus -14.0903 3.26748 -95.4092
rradius 58.2245
rwrist -6.09982
rhand -34.7164 56.693
rfingers 7.12502
rthumb -7.87103 26.8596
lclavicle -9.14409e-015 1.98785e-015
lhumerus 15.3713 -42.401 68.1255
lradius 99.4071
lwrist -9.52904
lhand -29.9813 32.2512
lfingers 7.12502
lthumb -3.29937 62.2054
rfemur 3.48782 -13.4944 33.0613
rtibia 87.4439
rfoot -4.26901 -23.1158
rtoes -25.2235
lfemur -54.4253 3.23551 -19.1036
ltibia 54.1732
lfoot -8.04597 -8.33033
ltoes -31.7599
